<?xml version="1.0" standalone="no"?><!DOCTYPE svg PUBLIC "-//W3C//DTD SVG 1.1//EN" "http://www.w3.org/Graphics/SVG/1.1/DTD/svg11.dtd"><svg t="1495697452386" class="icon" style="" viewBox="0 0 1024 1024" version="1.1" xmlns="http://www.w3.org/2000/svg" p-id="2015" xmlns:xlink="http://www.w3.org/1999/xlink" width="32" height="32"><defs><style type="text/css">@font-face { font-family: uc-nexus-iconfont; src: url("chrome-extension://pogijhnlcfmcppgimcaccdkmbedjkmhi/res/font_9qmmi8b8jsxxbt9.woff") format("woff"), url("chrome-extension://pogijhnlcfmcppgimcaccdkmbedjkmhi/res/font_9qmmi8b8jsxxbt9.ttf") format("truetype"); }
</style></defs><path d="M454.656 850.688h98.944v-96h-98.944v96zM721.664 382.72c-12.032-97.92-73.088-150.016-183.04-156.032-130.048-6.016-206.976 51.968-231.04 173.952l87.04 20.992c18.048-80 61.952-120.064 131.968-120.064 57.984 4.096 89.984 34.048 96 89.984 1.92 40.064-25.088 80-81.024 120.064-54.016 35.968-80 83.072-77.952 141.056v29.952h81.024v-23.936c-2.048-41.984 19.968-77.952 66.048-108.032C688.64 502.656 725.632 446.72 721.664 382.72z" p-id="2016"></path></svg>